<svg width="150" height="40" viewBox="0 0 332 57" fill="none" xmlns="http://www.w3.org/2000/svg">
<path d="M12.848 56.352V28.576L15.408 25.568V0.543999H20.784V27.36L18.224 31.264V56.352H12.848ZM29.232 16.288C27.44 15.3067 25.6053 14.496 23.728 13.856C21.8933 13.216 20.1653 12.896 18.544 12.896C16.5387 12.896 14.96 13.3013 13.808 14.112C12.656 14.9227 12.08 16.1387 12.08 17.76C12.08 18.8693 12.5067 19.872 13.36 20.768C14.256 21.6213 15.3867 22.3893 16.752 23.072C18.16 23.7547 19.6107 24.3733 21.104 24.928C22.9387 25.6107 24.7093 26.4853 26.416 27.552C28.1227 28.576 29.5307 30.0053 30.64 31.84C31.7493 33.632 32.304 36.0213 32.304 39.008C32.304 41.3973 31.6853 43.616 30.448 45.664C29.2107 47.712 27.3973 49.376 25.008 50.656C22.6187 51.8933 19.6747 52.512 16.176 52.512C13.488 52.512 10.736 52.1067 7.92 51.296C5.14667 50.4853 2.52267 49.2053 0.0480001 47.456L4.144 40.224C5.76533 41.4187 7.62133 42.4 9.712 43.168C11.8027 43.936 13.68 44.32 15.344 44.32C16.4533 44.32 17.5627 44.1707 18.672 43.872C19.824 43.5307 20.7627 42.976 21.488 42.208C22.256 41.44 22.64 40.3733 22.64 39.008C22.64 38.0693 22.32 37.216 21.68 36.448C21.0827 35.68 20.2507 34.976 19.184 34.336C18.16 33.696 17.0293 33.1413 15.792 32.672C14.3413 32.1173 12.848 31.4773 11.312 30.752C9.776 30.0267 8.32533 29.152 6.96 28.128C5.63733 27.0613 4.54933 25.76 3.696 24.224C2.88533 22.6453 2.48 20.7253 2.48 18.464C2.48 15.7333 3.07733 13.3653 4.272 11.36C5.50933 9.35466 7.23733 7.776 9.456 6.624C11.6747 5.42933 14.2347 4.768 17.136 4.64C20.9333 4.64 24.0053 5.088 26.352 5.984C28.7413 6.88 30.8747 7.94667 32.752 9.184L29.232 16.288Z" fill="#065918"/>
<path d="M40.3925 4.896H69.8325V13.856H49.6725V24.544H67.1445V33.504H49.6725V52H40.3925V4.896ZM78.7675 4.896H88.0475V52H78.7675V4.896ZM142.381 53.92L106.669 21.664L109.421 23.2L109.613 52H100.205V3.04H100.589L135.533 35.168L133.485 34.272L133.293 4.896H142.637V53.92H142.381ZM149.456 52L170.704 3.04H171.216L192.464 52H181.712L168.144 17.568L174.864 12.96L158.608 52H149.456ZM163.984 34.976H178.128L181.392 42.784H161.104L163.984 34.976ZM241.506 53.92L205.794 21.664L208.546 23.2L208.738 52H199.33V3.04H199.714L234.658 35.168L232.61 34.272L232.418 4.896H241.762V53.92H241.506ZM289.221 48.096C288.709 48.5227 287.749 49.0987 286.341 49.824C284.975 50.5493 283.29 51.1893 281.285 51.744C279.279 52.2987 277.061 52.5547 274.629 52.512C270.917 52.4267 267.589 51.7653 264.645 50.528C261.743 49.248 259.269 47.52 257.22 45.344C255.215 43.168 253.679 40.672 252.613 37.856C251.546 35.04 251.013 32.032 251.013 28.832C251.013 25.248 251.546 21.9627 252.613 18.976C253.722 15.9893 255.279 13.408 257.285 11.232C259.333 9.056 261.765 7.37067 264.581 6.176C267.397 4.98133 270.511 4.384 273.925 4.384C277.082 4.384 279.877 4.81067 282.309 5.664C284.741 6.51733 286.725 7.43466 288.261 8.416L284.613 17.184C283.546 16.3733 282.117 15.5413 280.325 14.688C278.575 13.792 276.549 13.344 274.245 13.344C271.855 13.344 269.615 14.0053 267.525 15.328C265.477 16.6507 263.813 18.4427 262.533 20.704C261.295 22.9227 260.677 25.4613 260.677 28.32C260.677 31.3493 261.253 34.016 262.405 36.32C263.557 38.5813 265.199 40.352 267.333 41.632C269.466 42.912 271.962 43.552 274.821 43.552C277.338 43.552 279.493 43.1467 281.285 42.336C283.076 41.5253 284.442 40.672 285.381 39.776L289.221 48.096ZM298.518 4.896H330.646V13.856H307.798V23.904H328.022V32.864H307.798V43.04H331.542V52H298.518V4.896Z" fill="black"/>
</svg>
