<svg width="33" height="57" viewBox="0 0 33 57" fill="none" xmlns="http://www.w3.org/2000/svg">
<path d="M12.848 56.352V28.576L15.408 25.568V0.543999H20.784V27.36L18.224 31.264V56.352H12.848ZM29.232 16.288C27.44 15.3067 25.6053 14.496 23.728 13.856C21.8933 13.216 20.1653 12.896 18.544 12.896C16.5387 12.896 14.96 13.3013 13.808 14.112C12.656 14.9227 12.08 16.1387 12.08 17.76C12.08 18.8693 12.5067 19.872 13.36 20.768C14.256 21.6213 15.3867 22.3893 16.752 23.072C18.16 23.7547 19.6107 24.3733 21.104 24.928C22.9387 25.6107 24.7093 26.4853 26.416 27.552C28.1227 28.576 29.5307 30.0053 30.64 31.84C31.7493 33.632 32.304 36.0213 32.304 39.008C32.304 41.3973 31.6853 43.616 30.448 45.664C29.2107 47.712 27.3973 49.376 25.008 50.656C22.6187 51.8933 19.6747 52.512 16.176 52.512C13.488 52.512 10.736 52.1067 7.92 51.296C5.14667 50.4853 2.52267 49.2053 0.0480001 47.456L4.144 40.224C5.76533 41.4187 7.62133 42.4 9.712 43.168C11.8027 43.936 13.68 44.32 15.344 44.32C16.4533 44.32 17.5627 44.1707 18.672 43.872C19.824 43.5307 20.7627 42.976 21.488 42.208C22.256 41.44 22.64 40.3733 22.64 39.008C22.64 38.0693 22.32 37.216 21.68 36.448C21.0827 35.68 20.2507 34.976 19.184 34.336C18.16 33.696 17.0293 33.1413 15.792 32.672C14.3413 32.1173 12.848 31.4773 11.312 30.752C9.776 30.0267 8.32533 29.152 6.96 28.128C5.63733 27.0613 4.54933 25.76 3.696 24.224C2.88533 22.6453 2.48 20.7253 2.48 18.464C2.48 15.7333 3.07733 13.3653 4.272 11.36C5.50933 9.35466 7.23733 7.776 9.456 6.624C11.6747 5.42933 14.2347 4.768 17.136 4.64C20.9333 4.64 24.0053 5.088 26.352 5.984C28.7413 6.88 30.8747 7.94667 32.752 9.184L29.232 16.288Z" fill="#09AC2D"/>
</svg>
